<svg width="125" height="125" viewBox="0 0 14 14" fill="none" xmlns="http://www.w3.org/2000/svg">
<g clip-path="url(#clip0)">
<path d="M13.7812 11.1838C13.7812 11.4917 13.5317 11.7412 13.2239 11.7412L0.776124 11.7412C0.468288 11.7412 0.218749 11.4917 0.218749 11.1838C0.218749 10.876 0.468288 10.6265 0.776124 10.6265L13.2239 10.6265C13.5317 10.6265 13.7812 10.876 13.7812 11.1838Z" fill="#6e6e6e"/>
<path d="M13.8906 11.1838C13.8906 11.5515 13.5915 11.8506 13.2239 11.8506L0.776124 11.8506C0.40846 11.8506 0.109374 11.5515 0.109374 11.1838C0.109374 10.8162 0.40846 10.5171 0.776124 10.5171L13.2239 10.5171C13.5915 10.5171 13.8906 10.8162 13.8906 11.1838ZM0.328124 11.1838C0.328124 11.4309 0.529101 11.6318 0.776124 11.6318L13.2239 11.6318C13.4709 11.6318 13.6719 11.4309 13.6719 11.1838C13.6719 10.9368 13.4709 10.7358 13.2239 10.7358L0.776124 10.7358C0.529101 10.7358 0.328124 10.9368 0.328124 11.1838Z" fill="#6e6e6e"/>
<path d="M7.4632 11.2694C7.4632 11.3298 7.4142 11.3788 7.35382 11.3788H6.64617C6.5858 11.3788 6.5368 11.3298 6.5368 11.2694C6.5368 11.209 6.5858 11.16 6.64617 11.16H7.35377C7.4142 11.16 7.4632 11.209 7.4632 11.2694Z" fill="#6e6e6e"/>
<path d="M2.58432 10.2075C2.04324 9.6664 1.16598 9.6664 0.624898 10.2075C0.0838197 10.7486 0.0838194 11.6258 0.624898 12.1669C1.16598 12.708 2.04324 12.708 2.58432 12.1669C3.1254 11.6258 3.1254 10.7486 2.58432 10.2075Z" fill="#6e6e6e"/>
<path d="M0.218749 11.1867C0.218749 11.2467 0.22296 11.3057 0.230397 11.3636C0.317351 10.6819 0.899171 10.1548 1.60448 10.1548C2.30983 10.1548 2.89166 10.682 2.97855 11.3636C2.98594 11.3057 2.9902 11.2467 2.9902 11.1867C2.9902 10.4214 2.36977 9.80101 1.60448 9.80101C0.839179 9.80095 0.218749 10.4214 0.218749 11.1867Z" fill="#6e6e6e"/>
<path d="M13.7812 2.81042C13.7812 3.11826 13.5317 3.3678 13.2239 3.3678L0.776124 3.3678C0.468288 3.3678 0.218749 3.11826 0.218749 2.81042C0.218749 2.50259 0.468288 2.25305 0.776124 2.25305L13.2239 2.25305C13.5317 2.25305 13.7812 2.50259 13.7812 2.81042Z" fill="#6e6e6e"/>
<path d="M13.8906 2.81042C13.8906 3.17809 13.5915 3.47717 13.2239 3.47717L0.776124 3.47717C0.40846 3.47712 0.109374 3.17803 0.109374 2.81042C0.109374 2.44281 0.40846 2.14373 0.776124 2.14373L13.2239 2.14373C13.5915 2.14367 13.8906 2.44276 13.8906 2.81042ZM0.328124 2.81042C0.328124 3.05745 0.529101 3.25842 0.776124 3.25842L13.2239 3.25842C13.4709 3.25842 13.6719 3.05745 13.6719 2.81042C13.6719 2.5634 13.4709 2.36248 13.2239 2.36248L0.776124 2.36248C0.529101 2.36242 0.328124 2.5634 0.328124 2.81042Z" fill="#6e6e6e"/>
<path d="M13.3751 1.83602C12.834 1.29494 11.9568 1.29494 11.4157 1.83602C10.8746 2.3771 10.8746 3.25436 11.4157 3.79544C11.9568 4.33652 12.834 4.33652 13.3751 3.79544C13.9162 3.25436 13.9162 2.3771 13.3751 1.83602Z" fill="#6e6e6e"/>
<path d="M11.0098 2.81332C11.0098 2.87331 11.014 2.93227 11.0214 2.99023C11.1084 2.3085 11.6902 1.78142 12.3956 1.78142C13.1009 1.78142 13.6828 2.30856 13.7696 2.99023C13.777 2.93227 13.7813 2.87331 13.7813 2.81332C13.7813 2.04802 13.1609 1.42759 12.3956 1.42759C11.6302 1.42754 11.0098 2.04797 11.0098 2.81332Z" fill="#6e6e6e"/>
<path d="M13.7812 2.81337C13.7812 2.75338 13.777 2.69442 13.7696 2.63646C13.6826 3.31819 13.1008 3.84527 12.3955 3.84527C11.6902 3.84527 11.1083 3.31814 11.0214 2.63646C11.014 2.69442 11.0097 2.75338 11.0097 2.81337C11.0097 3.57867 11.6302 4.1991 12.3955 4.1991C13.1608 4.1991 13.7812 3.57867 13.7812 2.81337Z" fill="#6e6e6e"/>
<path d="M13.7812 6.99707C13.7812 7.3049 13.5317 7.55444 13.2239 7.55444L0.776124 7.55444C0.468288 7.55444 0.218749 7.3049 0.218749 6.99707C0.218749 6.68923 0.468288 6.43969 0.776124 6.43969L13.2239 6.43969C13.5317 6.43975 13.7812 6.68929 13.7812 6.99707Z" fill="#6e6e6e"/>
<path d="M13.8906 6.99707C13.8906 7.36473 13.5915 7.66382 13.2239 7.66382L0.776124 7.66382C0.40846 7.66382 0.109374 7.36473 0.109374 6.99707C0.109374 6.6294 0.40846 6.33032 0.776124 6.33032L13.2239 6.33032C13.5915 6.33032 13.8906 6.62946 13.8906 6.99707ZM0.328124 6.99707C0.328124 7.24409 0.529101 7.44507 0.776124 7.44507L13.2239 7.44507C13.4709 7.44507 13.6719 7.24409 13.6719 6.99707C13.6719 6.75005 13.4709 6.54907 13.2239 6.54907L0.776124 6.54907C0.529101 6.54907 0.328124 6.75005 0.328124 6.99707Z" fill="#6e6e6e"/>
<path d="M8.2973 7.00002C8.2973 6.2347 7.67689 5.61429 6.91157 5.61429C6.14625 5.61429 5.52584 6.2347 5.52584 7.00002C5.52584 7.76533 6.14625 8.38574 6.91157 8.38574C7.67689 8.38574 8.2973 7.76533 8.2973 7.00002Z" fill="#6e6e6e"/>
<path d="M13.8906 2.81325C13.8906 3.63766 13.2199 4.30835 12.3955 4.30835C11.5711 4.30835 10.9004 3.63766 10.9004 2.81325C10.9004 1.98883 11.5711 1.31814 12.3955 1.31814C13.2199 1.31814 13.8906 1.98889 13.8906 2.81325ZM11.1192 2.81325C11.1192 3.51702 11.6917 4.0896 12.3955 4.0896C13.0993 4.0896 13.6719 3.51702 13.6719 2.81325C13.6719 2.10947 13.0993 1.5369 12.3955 1.5369C11.6917 1.5369 11.1192 2.10947 11.1192 2.81325Z" fill="#6e6e6e"/>
<path d="M5.52584 6.99997C5.52584 7.05996 5.53005 7.11891 5.53749 7.17688C5.62445 6.49515 6.20627 5.96807 6.91157 5.96807C7.61687 5.96807 8.19875 6.4952 8.28565 7.17688C8.29303 7.11891 8.2973 7.05996 8.2973 6.99997C8.2973 6.23467 7.67687 5.61424 6.91157 5.61424C6.14627 5.61424 5.52584 6.23467 5.52584 6.99997Z" fill="#6e6e6e"/>
<path d="M8.2973 7.00002C8.2973 6.94003 8.29308 6.88108 8.28565 6.82311C8.19869 7.50484 7.61687 8.03192 6.91157 8.03192C6.20627 8.03192 5.62439 7.50478 5.53749 6.82311C5.53011 6.88108 5.52584 6.94003 5.52584 7.00002C5.52584 7.76532 6.14627 8.38574 6.91157 8.38574C7.67687 8.38574 8.2973 7.76532 8.2973 7.00002Z" fill="#6e6e6e"/>
<path d="M2.9902 11.1867C2.9902 11.1267 2.98599 11.0677 2.97855 11.0097C2.8916 11.6915 2.30978 12.2186 1.60448 12.2186C0.899116 12.2186 0.317296 11.6914 0.230397 11.0097C0.22296 11.0677 0.218749 11.1267 0.218749 11.1867C0.218749 11.952 0.839179 12.5724 1.60448 12.5724C2.36983 12.5724 2.9902 11.952 2.9902 11.1867Z" fill="#6e6e6e"/>
<path d="M8.40667 7.00002C8.40667 7.82443 7.73598 8.49512 6.91157 8.49512C6.08716 8.49512 5.41647 7.82443 5.41647 7.00002C5.41647 6.17561 6.08716 5.50492 6.91157 5.50492C7.73598 5.50492 8.40667 6.17561 8.40667 7.00002ZM5.63517 7.00002C5.63517 7.70379 6.20774 8.27637 6.91152 8.27637C7.61529 8.27637 8.18787 7.70379 8.18787 7.00002C8.18787 6.29625 7.61529 5.72367 6.91152 5.72367C6.20774 5.72367 5.63517 6.29625 5.63517 7.00002Z" fill="#6e6e6e"/>
<path d="M3.09958 11.1867C3.09958 12.0111 2.42889 12.6818 1.60448 12.6818C0.780062 12.6818 0.109374 12.011 0.109374 11.1867C0.109374 10.3622 0.780062 9.69156 1.60448 9.69156C2.42889 9.6915 3.09958 10.3622 3.09958 11.1867ZM0.328124 11.1867C0.328124 11.8904 0.900702 12.463 1.60448 12.463C2.30825 12.463 2.88083 11.8904 2.88083 11.1867C2.88083 10.4829 2.30825 9.91031 1.60448 9.91031C0.900702 9.91031 0.328124 10.4829 0.328124 11.1867Z" fill="#6e6e6e"/>
</g>
<defs>
<clipPath id="clip0">
<rect width="125" height="125" fill="white" transform="translate(0 14) rotate(-90)"/>
</clipPath>
</defs>
</svg>
